<svg width="48" height="48" viewBox="0 0 48 48" fill="none" xmlns="http://www.w3.org/2000/svg">
<g clip-path="url(#clip0_2002_13)">
<path fill-rule="evenodd" clip-rule="evenodd" d="M24.9538 9.09146C24.283 7.59744 25.5674 5.99592 27.1478 6.2749C35.5882 7.76482 42 15.1317 42 24.0002C42 33.9414 33.941 42.0002 24 42.0002C15.1314 42.0002 7.76451 35.5886 6.27459 27.1482C5.99557 25.5676 7.59723 24.2834 9.09115 24.9542C10.587 25.6256 12.247 26.0002 13.9999 26.0002C20.6274 26.0002 26 20.6276 26 14.0002C26 12.2474 25.6254 10.5874 24.9538 9.09146ZM29.7618 11.2365C29.9184 12.1349 30 13.0585 30 14.0002C30 22.8368 22.8364 30.0002 13.9999 30.0002C13.0582 30.0002 12.1346 29.9186 11.2362 29.7622C13.4327 34.62 18.3229 38.0002 24 38.0002C31.7318 38.0002 38 31.7322 38 24.0002C38 18.3232 34.6196 13.433 29.7618 11.2365ZM11.1296 15.4315L11.2571 15.7101C11.8027 16.8387 12.6621 17.7861 13.732 18.4387L13.9307 18.5551C14.023 18.607 14.023 18.7399 13.9307 18.7919L13.732 18.9083C12.6621 19.5609 11.8027 20.5082 11.2571 21.6368L11.1296 21.9154C11.0797 22.0278 10.9201 22.0278 10.8702 21.9154L10.7427 21.6368C10.1971 20.5082 9.33775 19.5609 8.26783 18.9083L8.06915 18.7919C7.97685 18.7399 7.97685 18.607 8.06915 18.5551L8.26783 18.4387C9.33775 17.7861 10.1971 16.8387 10.7427 15.7101L10.8702 15.4315C10.9201 15.3191 11.0797 15.3191 11.1296 15.4315ZM16.7932 5.71476C16.8728 5.53584 17.1267 5.53584 17.2062 5.71476L17.4092 6.15828C18.2775 7.95472 19.6455 9.4627 21.3486 10.5014L21.6648 10.6867C21.8116 10.7694 21.8116 10.981 21.6648 11.0636L21.3486 11.2489C19.6455 12.2876 18.2775 13.7956 17.4092 15.5921C17.3384 15.7385 17.2723 15.887 17.2062 16.0356C17.1267 16.2145 16.8728 16.2145 16.7932 16.0356L16.5903 15.5921C15.7219 13.7956 14.354 12.2876 12.651 11.2489L12.3347 11.0636C12.1878 10.981 12.1878 10.7694 12.3347 10.6867L12.651 10.5014C14.354 9.4627 15.7219 7.95472 16.5903 6.15828L16.7932 5.71476Z" fill="black"/>
</g>
<defs>
<clipPath id="clip0_2002_13">
<rect width="48" height="48" fill="white"/>
</clipPath>
</defs>
</svg>
