<svg width="48" height="48" viewBox="0 0 48 48" fill="none" xmlns="http://www.w3.org/2000/svg">
<g clip-path="url(#clip0_2002_10)">
<path d="M24 38C25.1046 38 26 38.8954 26 40V42C26 43.1046 25.1046 44 24 44C22.8954 44 22 43.1046 22 42V40C22 38.8954 22.8954 38 24 38ZM36.728 33.8996L38.1422 35.3138C38.9232 36.0948 38.9232 37.361 38.1422 38.1422C37.3612 38.9232 36.0948 38.9232 35.3138 38.1422L33.8996 36.728C33.1186 35.9468 33.1186 34.6806 33.8996 33.8996C34.6806 33.1184 35.947 33.1184 36.728 33.8996ZM11.272 33.8996C12.053 33.1184 13.3194 33.1184 14.1004 33.8996C14.8214 34.6205 14.8768 35.755 14.2668 36.5396L14.1004 36.728L12.6862 38.1422C11.9051 38.9232 10.6388 38.9232 9.85776 38.1422C9.13678 37.4213 9.08132 36.2868 9.69138 35.5022L9.85776 35.3138L11.272 33.8996ZM24 12C30.6274 12 36 17.3726 36 24C36 30.6274 30.6274 36 24 36C17.3726 36 12 30.6274 12 24C12 17.3726 17.3726 12 24 12ZM24 16C19.5817 16 16 19.5817 16 24C16 28.4182 19.5817 32 24 32C28.4182 32 32 28.4182 32 24C32 19.5817 28.4182 16 24 16ZM8 22C9.10456 22 10 22.8954 10 24C10 25.0257 9.22791 25.871 8.23324 25.9865L8 26H6C4.89544 26 4 25.1046 4 24C4 22.9743 4.77209 22.129 5.76676 22.0135L6 22H8ZM42 22C43.1046 22 44 22.8954 44 24C44 25.1046 43.1046 26 42 26H40C38.8954 26 38 25.1046 38 24C38 22.8954 38.8954 22 40 22H42ZM9.85782 9.85776C10.5788 9.1368 11.7132 9.08134 12.4978 9.69138L12.6862 9.85776L14.1005 11.272C14.8815 12.053 14.8815 13.3194 14.1005 14.1004C13.3795 14.8214 12.245 14.8768 11.4604 14.2668L11.272 14.1004L9.85782 12.6862C9.07676 11.9051 9.07676 10.6388 9.85782 9.85776ZM38.1422 9.8578C38.9232 10.6388 38.9232 11.9052 38.1422 12.6862L36.728 14.1004C35.9468 14.8815 34.6806 14.8815 33.8996 14.1004C33.1184 13.3194 33.1184 12.0531 33.8996 11.272L35.3138 9.8578C36.0948 9.07674 37.361 9.07674 38.1422 9.8578ZM24 4C25.1046 4 26 4.89544 26 6V8C26 9.10456 25.1046 10 24 10C22.8954 10 22 9.10456 22 8V6C22 4.89544 22.8954 4 24 4Z" fill="black"/>
</g>
<defs>
<clipPath id="clip0_2002_10">
<rect width="48" height="48" fill="white"/>
</clipPath>
</defs>
</svg>
