<svg width="48" height="48" viewBox="0 0 48 48" fill="none" xmlns="http://www.w3.org/2000/svg">
<g clip-path="url(#clip0_2002_55)">
<path fill-rule="evenodd" clip-rule="evenodd" d="M24 12C17.3726 12 12 17.3726 12 24C12 24.1422 12.0025 24.2838 12.0074 24.4247C12.7873 24.1498 13.6264 24 14.5 24C17.5376 24 20.1498 25.8044 21.3296 28.3976C24.0506 29.3578 26 31.9498 26 35C26 35.2849 25.9829 35.5661 25.9497 35.8424C31.6498 34.9111 36 29.9636 36 24C36 22.162 35.5881 20.4257 34.8535 18.8736C34.1889 17.4694 33.2588 16.2133 32.1271 15.1709C29.9879 13.2006 27.1364 12 24 12ZM23.8991 39.9997C22.6382 41.235 20.9083 42 19 42H10C6.68629 42 4 39.3137 4 36C4 33.7637 5.22225 31.816 7.03383 30.7839C7.15809 29.4752 7.61923 28.2632 8.32821 27.2379C8.11286 26.1908 8 25.1077 8 24C8 15.1634 15.1634 8 24 8C27.1362 8 30.064 8.90384 32.5338 10.4637C33.4428 9.12202 34.9795 8.24026 36.7222 8.24026C38.6378 8.24026 40.3014 9.30448 41.1593 10.8721C42.833 11.6153 44 13.2902 44 15.2402C44 17.7863 42.0084 19.8673 39.498 20.0101C39.8258 21.2867 40 22.6239 40 24C40 32.8366 32.8366 40 24 40C23.9663 40 23.9327 39.9999 23.8991 39.9997ZM37.8695 16.018L39.2222 16.018C39.6518 16.018 40 15.6697 40 15.2402C40 14.8556 39.7188 14.5328 39.3508 14.4727C38.5755 14.3463 37.9461 13.7777 37.7417 13.0192C37.6204 12.569 37.2071 12.2403 36.7222 12.2403C36.2149 12.2403 35.7912 12.5982 35.6898 13.0752C36.5229 13.9663 37.2556 14.9532 37.8695 16.018ZM14.5 28C13.4972 28 12.5955 28.4192 11.9548 29.0975C11.3611 29.7261 11 30.5687 11 31.5C11 31.6344 11.0075 31.7663 11.0219 31.8953C11.1332 32.8921 10.489 33.8172 9.51552 34.0586C8.64403 34.2747 8 35.0646 8 36C8 37.1046 8.89543 38 10 38H19C19.9891 38 20.8665 37.5234 21.4162 36.7788C21.7835 36.2812 22 35.6688 22 35C22 33.5108 20.9129 32.2716 19.4891 32.0394C18.7138 31.9129 18.0843 31.3443 17.8799 30.5858C17.4782 29.0947 16.1144 28 14.5 28Z" fill="black"/>
</g>
<defs>
<clipPath id="clip0_2002_55">
<rect width="48" height="48" fill="white"/>
</clipPath>
</defs>
</svg>
