<svg width="48" height="48" viewBox="0 0 48 48" fill="none" xmlns="http://www.w3.org/2000/svg">
<g clip-path="url(#clip0_2002_73)">
<path fill-rule="evenodd" clip-rule="evenodd" d="M24.8885 8.77482C25.3422 8.18921 26.0825 7.90239 26.8124 8.02943C28.9328 8.39852 30.9109 9.17871 32.6617 10.2836C33.583 9.04366 35.0588 8.2403 36.7222 8.2403C38.6378 8.2403 40.3014 9.30452 41.1593 10.8721C42.833 11.6153 44 13.2902 44 15.2403C44 17.7058 42.1325 19.7351 39.7348 19.9908C40.0633 21.2782 40.2378 22.6262 40.2378 24.0131C40.2378 32.9737 32.9738 40.2377 24.0132 40.2377C23.8913 40.2377 23.7697 40.2364 23.6484 40.2337C22.4136 41.3308 20.7844 42 19 42H10C6.68629 42 4 39.3138 4 36C4 33.7638 5.2222 31.8161 7.03374 30.784C7.39423 26.9778 10.5994 24 14.5 24C15.9055 24 17.2237 24.3882 18.3493 25.0623C22.5403 23.7032 25.5693 19.7646 25.5693 15.123C25.5693 13.5865 25.2389 12.1325 24.6471 10.8239C24.3418 10.1489 24.4347 9.36043 24.8885 8.77482ZM21.3298 28.3977C21.3015 28.3355 21.2724 28.2737 21.2425 28.2124C26.1614 25.9088 29.5693 20.9156 29.5693 15.123C29.5693 14.4183 29.5187 13.7248 29.4209 13.0461C30.483 13.571 31.4586 14.2461 32.32 15.0444C33.4795 16.1188 34.4295 17.4142 35.1032 18.8619C35.8307 20.4249 36.2378 22.1687 36.2378 24.0131C36.2378 30.1176 31.7634 35.177 25.9153 36.0906C25.9711 35.7351 26 35.3708 26 35C26 31.9499 24.0507 29.358 21.3298 28.3977ZM38.134 16.018H39.2222C39.6518 16.018 40 15.6698 40 15.2403C40 14.8556 39.7188 14.5328 39.3508 14.4728C38.5755 14.3463 37.9461 13.7777 37.7417 13.0192C37.6204 12.569 37.2071 12.2403 36.7222 12.2403C36.3046 12.2403 35.9436 12.4828 35.7725 12.8347C36.6825 13.7917 37.4772 14.8602 38.134 16.018ZM14.5 28C12.567 28 11 29.5671 11 31.5C11 31.6344 11.0075 31.7663 11.0219 31.8954C11.1332 32.8922 10.489 33.8173 9.51552 34.0586C8.64403 34.2747 8 35.0646 8 36C8 37.1046 8.89543 38 10 38H19C19.9284 38 20.7571 37.5807 21.3106 36.9137C21.7422 36.3936 22 35.7296 22 35C22 33.5108 20.9129 32.2716 19.4891 32.0394C18.7138 31.9129 18.0843 31.3443 17.8799 30.5858C17.688 29.8738 17.2744 29.2473 16.7132 28.7884C16.1095 28.2947 15.3418 28 14.5 28Z" fill="black"/>
</g>
<defs>
<clipPath id="clip0_2002_73">
<rect width="48" height="48" fill="white"/>
</clipPath>
</defs>
</svg>
