<svg width="48" height="48" viewBox="0 0 48 48" fill="none" xmlns="http://www.w3.org/2000/svg">
<g clip-path="url(#clip0_2002_79)">
<path fill-rule="evenodd" clip-rule="evenodd" d="M23.0004 4C15.8766 4 10.0912 9.72982 10.0014 16.8322C6.83341 18.2157 4.52171 21.191 4.07759 24.7526C3.94091 25.8486 4.71865 26.848 5.81473 26.9846C6.91081 27.1214 7.91017 26.3436 8.04685 25.2474C8.35447 22.7806 10.167 20.7724 12.5374 20.1792C13.5105 19.9356 14.1662 19.0094 14.0549 17.9985C14.0189 17.6713 14.0003 17.3382 14.0003 17C14.0003 12.0294 18.0298 8 23.0004 8C27.1522 8 30.6522 10.8133 31.6886 14.641C31.8958 15.4066 32.531 15.9783 33.3106 16.1065C37.1052 16.7305 40.0004 20.029 40.0004 24C40.0004 24.2714 39.9868 24.539 39.9608 24.8024C39.8516 25.9016 40.6542 26.881 41.7534 26.9902C42.8526 27.0994 43.832 26.2968 43.9412 25.1976C43.9804 24.8032 44.0004 24.4036 44.0004 24C44.0004 18.4692 40.2604 13.8153 35.1714 12.424C33.3202 7.50308 28.5716 4 23.0004 4ZM6.00019 32C6.00019 30.8954 6.89563 30 8.00019 30H40.0002C41.1048 30 42.0002 30.8954 42.0002 32C42.0002 33.1046 41.1048 34 40.0002 34H8.00019C6.89563 34 6.00019 33.1046 6.00019 32ZM14.0002 40C14.0002 38.8954 14.8956 38 16.0002 38H34.0002C35.1048 38 36.0002 38.8954 36.0002 40C36.0002 41.1046 35.1048 42 34.0002 42H16.0002C14.8956 42 14.0002 41.1046 14.0002 40Z" fill="black"/>
</g>
<defs>
<clipPath id="clip0_2002_79">
<rect width="48" height="48" fill="white"/>
</clipPath>
</defs>
</svg>
