<svg width="48" height="48" viewBox="0 0 48 48" fill="none" xmlns="http://www.w3.org/2000/svg">
<g clip-path="url(#clip0_2002_82)">
<path d="M21.8482 31.5844C22.1342 30.5174 23.2308 29.8844 24.2978 30.1702C25.3646 30.456 25.9978 31.5528 25.712 32.6196L25.1944 34.5516C24.9084 35.6184 23.8118 36.2516 22.7448 35.9658C21.6778 35.6798 21.0448 34.5832 21.3306 33.5162L21.8482 31.5844ZM23 4C28.5712 4 33.3198 7.50306 35.1712 12.424C40.26 13.8153 44 18.4693 44 24C44 29.8078 39.876 34.648 34.3978 35.76C33.3154 35.9798 32.2598 35.2804 32.04 34.1978C31.8202 33.1154 32.5196 32.0596 33.6022 31.84C37.2528 31.0988 40 27.868 40 24C40 20.0254 37.0996 16.7246 33.3002 16.1048C32.5248 15.9783 31.8954 15.4097 31.691 14.6512C30.6582 10.8183 27.1556 8 23 8C18.0294 8 14 12.0294 14 17C14 17.3431 14.0191 17.681 14.0562 18.0127C14.1675 19.0095 13.5233 19.9346 12.5498 20.176C9.9357 20.824 8 23.1884 8 26C8 28.6894 9.77104 30.9696 12.2128 31.7298L12.5498 31.824C13.6219 32.0898 14.2756 33.1744 14.0098 34.2466C13.744 35.3186 12.6594 35.9724 11.5873 35.7066C7.231 34.6266 4 30.693 4 26C4 21.8972 6.46932 18.375 10.0011 16.8323C10.0909 9.72988 15.8763 4 23 4ZM23.6414 40.3472C23.9272 39.2802 23.2942 38.1834 22.2272 37.8976C21.1602 37.6118 20.0636 38.2448 19.7777 39.3118L19.2601 41.2436C18.9742 42.3106 19.6073 43.4072 20.6742 43.6932C21.7412 43.979 22.8378 43.3458 23.1238 42.279L23.6414 40.3472Z" fill="black"/>
</g>
<defs>
<clipPath id="clip0_2002_82">
<rect width="48" height="48" fill="white"/>
</clipPath>
</defs>
</svg>
