<svg width="48" height="48" viewBox="0 0 48 48" fill="none" xmlns="http://www.w3.org/2000/svg">
<g clip-path="url(#clip0_2002_88)">
<path d="M23.9998 26C25.1044 26 25.9998 26.8954 25.9998 28V30.5358L28.196 29.268C29.1526 28.7156 30.3758 29.0434 30.928 30C31.4804 30.9566 31.1526 32.1798 30.196 32.732L27.9998 34L30.196 35.268C31.1526 35.8202 31.4804 37.0434 30.9282 38C30.3758 38.9566 29.1526 39.2844 28.196 38.732L25.9998 37.464V40C25.9998 41.1046 25.1044 42 23.9998 42C22.8954 42 21.9998 41.1046 21.9998 40V37.464L19.8037 38.732C18.8471 39.2844 17.6239 38.9566 17.0717 38C16.5194 37.0434 16.8471 35.8202 17.8037 35.268L19.9999 34L17.8038 32.732C16.8472 32.1798 16.5194 30.9566 17.0717 30C17.624 29.0434 18.8472 28.7156 19.8038 29.268L21.9998 30.5358V28C21.9998 26.8954 22.8954 26 23.9998 26ZM23 4C28.5712 4 33.32 7.50308 35.1712 12.424C40.26 13.8153 44 18.4692 44 24C44 27.9274 42.111 31.4134 39.2012 33.599C38.318 34.2624 37.0644 34.0844 36.401 33.2012C35.7376 32.318 35.9156 31.0644 36.7988 30.401C38.7464 28.9378 40 26.6156 40 24C40 20.029 37.1048 16.7305 33.3104 16.1065C32.5308 15.9783 31.8954 15.4066 31.6882 14.641C30.652 10.8133 27.152 8 23 8C18.0294 8 14 12.0294 14 17C14 17.3382 14.0186 17.6713 14.0546 17.9985C14.1659 19.0094 13.5102 19.9356 12.537 20.1792C9.92936 20.8318 8 23.193 8 26C8 27.7918 8.78288 29.3982 10.0318 30.5006C10.86 31.2314 10.9388 32.4954 10.2078 33.3234C9.4769 34.1516 8.21302 34.2304 7.38488 33.4994C5.31214 31.67 4 28.987 4 26C4 21.8972 6.46936 18.375 10.0011 16.8323C10.0909 9.72988 15.8763 4 23 4Z" fill="black"/>
</g>
<defs>
<clipPath id="clip0_2002_88">
<rect width="48" height="48" fill="white"/>
</clipPath>
</defs>
</svg>
