<svg width="48" height="48" viewBox="0 0 48 48" fill="none" xmlns="http://www.w3.org/2000/svg">
<g clip-path="url(#clip0_2002_94)">
<path d="M18.2072 37.8976C19.2741 38.1834 19.9073 39.2802 19.6214 40.347L19.1037 42.279C18.8179 43.3458 17.7212 43.979 16.6542 43.6932C15.5873 43.4072 14.9541 42.3106 15.24 41.2436L15.7577 39.3118C16.0436 38.2448 17.1402 37.6118 18.2072 37.8976ZM27.5466 35.587C28.6136 35.873 29.2468 36.9696 28.9608 38.0366L28.4432 39.9684C28.1574 41.0354 27.0606 41.6686 25.9938 41.3826C24.9268 41.0968 24.2936 40 24.5794 38.9332L25.0972 37.0012C25.383 35.9344 26.4796 35.3012 27.5466 35.587ZM20.2778 30.1702C21.3446 30.456 21.9778 31.5528 21.692 32.6196L21.1742 34.5516C20.8884 35.6184 19.7917 36.2516 18.7248 35.9658C17.6579 35.6798 17.0247 34.5832 17.3106 33.5162L17.8282 31.5844C18.1141 30.5174 19.2108 29.8844 20.2778 30.1702ZM23 4C28.5712 4 33.32 7.50308 35.1712 12.424C40.26 13.8153 44 18.4692 44 24C44 27.9274 42.111 31.4134 39.2012 33.599C38.318 34.2624 37.0644 34.0844 36.401 33.2012C35.7376 32.318 35.9156 31.0644 36.7988 30.401C38.7464 28.9378 40 26.6156 40 24C40 20.029 37.1048 16.7305 33.3104 16.1065C32.5308 15.9783 31.8954 15.4066 31.6882 14.641C30.652 10.8133 27.152 8 23 8C18.0294 8 14 12.0294 14 17C14 17.3382 14.0186 17.6713 14.0546 17.9985C14.1659 19.0094 13.5102 19.9356 12.537 20.1792C9.92936 20.8318 8 23.193 8 26C8 27.7918 8.78288 29.3982 10.0318 30.5006C10.86 31.2314 10.9388 32.4954 10.2078 33.3234C9.4769 34.1516 8.21302 34.2304 7.38488 33.4994C5.31214 31.67 4 28.987 4 26C4 21.8972 6.46936 18.375 10.0011 16.8323C10.0909 9.72988 15.8763 4 23 4ZM29.6172 27.8596C30.6842 28.1456 31.3172 29.2422 31.0314 30.3092L30.5138 32.241C30.2278 33.308 29.1312 33.941 28.0642 33.6552C26.9974 33.3694 26.3642 32.2726 26.65 31.2058L27.1676 29.2738C27.4536 28.207 28.5502 27.5738 29.6172 27.8596Z" fill="black"/>
</g>
<defs>
<clipPath id="clip0_2002_94">
<rect width="48" height="48" fill="white"/>
</clipPath>
</defs>
</svg>
