<svg width="48" height="48" viewBox="0 0 48 48" fill="none" xmlns="http://www.w3.org/2000/svg">
<g clip-path="url(#clip0_2002_100)">
<path fill-rule="evenodd" clip-rule="evenodd" d="M24.001 4C25.1056 4 26.001 4.89544 26.001 6V7.9232L27.309 7.2318C28.2856 6.7156 29.4956 7.08878 30.0118 8.06532C30.528 9.04186 30.1548 10.2519 29.1784 10.7681L26.001 12.4476V16.252C27.4308 16.62 28.706 17.3733 29.709 18.3946L33.0056 16.4914L32.8714 12.9C32.8302 11.7962 33.6916 10.868 34.7954 10.8268C35.8992 10.7855 36.8274 11.6469 36.8686 12.7507L36.9238 14.2292L38.5894 13.2676C39.546 12.7153 40.7692 13.043 41.3214 13.9996C41.8738 14.9562 41.546 16.1794 40.5894 16.7317L38.9238 17.6933L40.1766 18.4803C41.112 19.0679 41.3938 20.3024 40.8062 21.2378C40.2186 22.173 38.984 22.455 38.0486 21.8674L35.0056 19.9555L31.711 21.8576C31.9002 22.5394 32.0012 23.258 32.0012 24C32.0012 24.742 31.9002 25.4606 31.711 26.1424L35.0056 28.0446L38.0488 26.1326C38.984 25.545 40.2186 25.827 40.8062 26.7622C41.3938 27.6976 41.112 28.932 40.1768 29.5196L38.924 30.3068L40.5894 31.2684C41.546 31.8206 41.8738 33.0438 41.3216 34.0004C40.7692 34.957 39.546 35.2848 38.5894 34.7324L36.924 33.7708L36.8688 35.2492C36.8274 36.353 35.8992 37.2144 34.7954 37.1732C33.6916 37.132 32.8302 36.2038 32.8716 35.1L33.0056 31.5086L29.709 29.6054C28.706 30.6266 27.4308 31.38 26.001 31.748V35.5524L29.1784 37.2318C30.1548 37.748 30.528 38.9582 30.0118 39.9346C29.4956 40.9112 28.2856 41.2844 27.309 40.7682L26.001 40.0768V42C26.001 43.1046 25.1056 44 24.001 44C22.8964 44 22.001 43.1046 22.001 42V40.0768L20.693 40.7682C19.7165 41.2844 18.5064 40.9112 17.9902 39.9346C17.474 38.9582 17.8472 37.748 18.8237 37.2318L22.001 35.5524V31.748C20.571 31.3798 19.2958 30.6264 18.2926 29.6048L14.9963 31.5078L15.1304 35.0992C15.1717 36.203 14.3103 37.1312 13.2065 37.1724C12.1027 37.2138 11.1744 36.3524 11.1332 35.2486L11.078 33.77L9.41243 34.7316C8.45585 35.284 7.23267 34.9562 6.68039 33.9996C6.12811 33.043 6.45585 31.8198 7.41243 31.2676L9.07797 30.306L7.82521 29.519C6.88991 28.9314 6.60803 27.6968 7.19565 26.7614C7.78325 25.8262 9.01781 25.5442 9.95313 26.1318L12.9963 28.0438L16.291 26.1416C16.1021 25.46 16.0011 24.7418 16.0011 24C16.0011 23.2582 16.1021 22.54 16.291 21.8584L12.9964 19.9563L9.95323 21.8682C9.01791 22.4558 7.78335 22.1738 7.19575 21.2386C6.60813 20.3032 6.88999 19.0687 7.82531 18.4811L9.07807 17.694L7.41253 16.7324C6.45595 16.1801 6.12819 14.957 6.68049 14.0004C7.23277 13.0438 8.45595 12.716 9.41253 13.2683L11.0781 14.2299L11.1333 12.7515C11.1745 11.6477 12.1028 10.7863 13.2066 10.8275C14.3104 10.8688 15.1717 11.797 15.1305 12.9008L14.9964 16.4922L18.2926 18.3953C19.2958 17.3737 20.571 16.6201 22.001 16.2521V12.4476L18.8237 10.7681C17.8472 10.2519 17.474 9.04186 17.9902 8.06532C18.5064 7.08878 19.7165 6.7156 20.693 7.2318L22.001 7.9232V6C22.001 4.89544 22.8964 4 24.001 4ZM24.001 28C26.2102 28 28.001 26.2092 28.001 24C28.001 21.7908 26.2102 20 24.001 20C21.7918 20 20.001 21.7908 20.001 24C20.001 26.2092 21.7918 28 24.001 28Z" fill="black"/>
</g>
<defs>
<clipPath id="clip0_2002_100">
<rect width="48" height="48" fill="white"/>
</clipPath>
</defs>
</svg>
