<svg width="48" height="48" viewBox="0 0 48 48" fill="none" xmlns="http://www.w3.org/2000/svg">
<g clip-path="url(#clip0_2002_43)">
<path d="M22.2636 26.0078C22.8116 25.0486 24.0332 24.7154 24.9922 25.2636C25.8829 25.7725 26.2338 26.8621 25.8405 27.783L25.7364 27.9922L23.4464 32H27.6554C29.2678 32 30.306 33.6627 29.6681 35.0896L29.5654 35.2916L25.7364 41.9922C25.1884 42.9514 23.9668 43.2846 23.0078 42.7364C22.1171 42.2275 21.7662 41.1379 22.1595 40.217L22.2636 40.0078L24.5536 36H20.3446C18.7322 36 17.694 34.3373 18.3319 32.9104L18.4345 32.7084L22.2636 26.0078ZM23 4C28.5712 4 33.32 7.50308 35.1712 12.424C40.26 13.8153 44 18.4692 44 24C44 28.9238 41.0348 33.1508 36.8008 35.0006C35.7886 35.4428 34.6096 34.9808 34.1672 33.9686C33.725 32.9564 34.187 31.7774 35.1992 31.3352C38.0288 30.0988 40 27.2774 40 24C40 20.029 37.1048 16.7305 33.3104 16.1065C32.5308 15.9783 31.8954 15.4066 31.6882 14.641C30.652 10.8133 27.152 8 23 8C18.0294 8 14 12.0294 14 17C14 17.3382 14.0186 17.6713 14.0546 17.9985C14.1659 19.0094 13.5102 19.9356 12.537 20.1792C9.92936 20.8318 8 23.193 8 26C8 28.793 9.91024 31.145 12.4985 31.811C13.5682 32.0864 14.2122 33.1768 13.9369 34.2464C13.6616 35.3162 12.5712 35.9602 11.5015 35.6848C7.18884 34.5748 4 30.6624 4 26C4 21.8972 6.46936 18.375 10.0011 16.8323C10.0909 9.72988 15.8763 4 23 4Z" fill="black"/>
</g>
<defs>
<clipPath id="clip0_2002_43">
<rect width="48" height="48" fill="white"/>
</clipPath>
</defs>
</svg>
