<svg width="48" height="48" viewBox="0 0 48 48" fill="none" xmlns="http://www.w3.org/2000/svg">
<g clip-path="url(#clip0_2002_37)">
<path d="M24.9922 25.2636C25.9514 25.8116 26.2846 27.0332 25.7364 27.9922L23.4464 32H25.6554C27.3446 32 28.4036 33.8248 27.5654 35.2916L23.7364 41.9922C23.1884 42.9514 21.9668 43.2846 21.0078 42.7364C20.0486 42.1884 19.7155 40.9668 20.2636 40.0078L22.5536 36H20.3446C18.6554 36 17.5964 34.1752 18.4345 32.7084L22.2636 26.0078C22.8116 25.0486 24.0332 24.7154 24.9922 25.2636ZM29.9974 37.0012C30.2832 35.9344 31.38 35.3012 32.4468 35.587C33.5138 35.873 34.147 36.9696 33.861 38.0366L33.3434 39.9684C33.0576 41.0354 31.9608 41.6686 30.894 41.3826C29.827 41.0968 29.1938 40 29.4798 38.9332L29.9974 37.0012ZM10.4374 37.0012C10.7232 35.9344 11.8199 35.3012 12.8868 35.587C13.9538 35.873 14.5869 36.9696 14.3011 38.0366L13.7834 39.9684C13.4975 41.0354 12.4009 41.6686 11.3339 41.3826C10.267 41.0968 9.63384 40 9.91972 38.9332L10.4374 37.0012ZM34.5174 27.8596C35.5844 28.1456 36.2174 29.2422 35.9316 30.3092L35.414 32.241C35.128 33.308 34.0314 33.941 32.9644 33.6552C31.8976 33.3694 31.2644 32.2726 31.5502 31.2058L32.068 29.2738C32.3538 28.207 33.4504 27.5738 34.5174 27.8596ZM14.9574 27.8596C16.0243 28.1456 16.6575 29.2422 16.3716 30.3092L15.854 32.241C15.5681 33.308 14.4714 33.9412 13.4045 33.6552C12.3376 33.3694 11.7044 32.2726 11.9903 31.2058L12.5079 29.2738C12.7938 28.207 13.8905 27.5738 14.9574 27.8596ZM23 4C28.5712 4 33.32 7.50308 35.1712 12.424C40.26 13.8153 44 18.4692 44 24C44 26.6994 43.106 29.1956 41.5992 31.2014C40.9356 32.0844 39.682 32.2624 38.7988 31.599C37.9158 30.9354 37.7378 29.6818 38.4012 28.7986C39.4056 27.4618 40 25.8032 40 24C40 20.029 37.1048 16.7305 33.3104 16.1065C32.5308 15.9783 31.8954 15.4066 31.6882 14.641C30.652 10.8133 27.152 8 23 8C18.0294 8 14 12.0294 14 17C14 17.3382 14.0186 17.6713 14.0546 17.9985C14.1659 19.0094 13.5102 19.9356 12.537 20.1792C9.92936 20.8318 8 23.193 8 26C8 26.9396 8.21463 27.8245 8.59669 28.6127L8.80146 28.9986C9.35456 29.9546 9.02784 31.1782 8.0717 31.7312C7.11558 32.2842 5.89214 31.9576 5.33904 31.0014C4.48702 29.5286 4 27.8182 4 26C4 21.8972 6.46936 18.375 10.0011 16.8323C10.0909 9.72988 15.8763 4 23 4Z" fill="black"/>
</g>
<defs>
<clipPath id="clip0_2002_37">
<rect width="48" height="48" fill="white"/>
</clipPath>
</defs>
</svg>
